<svg xmlns="http://www.w3.org/2000/svg" viewBox="0 0 399.2 399.2">
  <path fill="#1a1a1a" d="M17.5 377.2c9.6 0 17.5-7.8 17.5-17.5V237l151.5 138c3.2 2.8 7.6 4.6 11.6 4.6 3 0 5-.6 7-1.5 7-2.3 11-9 11-16V235l154 140c3.4 2.8 7.7 4.6 11.8 4.6 2.4 0 4.7-.6 7-1.5 6.4-2.3 10.5-9 10.5-16V37.8c0-7-4-13-10.5-16-6.4-3-13.7-1.5-19 3l-154.3 140v-127c0-7-4-13-10.5-16s-14-1.6-19 3l-151 137V39c0-9.6-8-17.5-17.5-17.5S0 29.7 0 39.2v320.5c0 9.7 8 17.5 17.5 17.5zM364.2 76.8v245.6l-135-123L364.2 77zm-183.5 0v245.6l-135-123L180.7 77z"/>
</svg>