<svg xmlns="http://www.w3.org/2000/svg" viewBox="0 0 399.5 399.5">
  <path fill="#1a1a1a" d="M382 377.4c9.6 0 17.5-8 17.5-17.5V39.2c0-9.6-8-17.5-17.5-17.5s-17.5 7.8-17.5 17.4V162L213 24.4c-5.2-4.7-12.5-6-19-3s-10.4 9-10.4 16V165L29.4 24.5c-5.2-4.6-12.5-5.8-19-3S0 30.8 0 37.8v324.6c0 7 4 13 10.5 16 2.3 1 4.7 1.4 7 1.4 4.4 0 8.4-1.4 11.6-4.6l154.7-140.4v127.7c0 7 4 13 10.5 16 2.4 1 4.7 1.4 7 1.4 4.4 0 8.5-1.5 11.7-4.7l151.4-137.7V360c.3 9.5 8.2 17.4 17.8 17.4zm-346.7-55V77l135 122.7-135 122.6zm183.5 0V77l135 122.7-135 122.6z"/>
</svg>